<?xml version="1.0" standalone="no"?>
<!DOCTYPE svg PUBLIC "-//W3C//DTD SVG 20010904//EN"
 "http://www.w3.org/TR/2001/REC-SVG-20010904/DTD/svg10.dtd">
<svg version="1.0" xmlns="http://www.w3.org/2000/svg"
 width="640.000000pt" height="640.000000pt" viewBox="0 0 640.000000 640.000000"
 preserveAspectRatio="xMidYMid meet">

<g transform="translate(0.000000,640.000000) scale(0.100000,-0.100000)"
fill="#000000" stroke="none">
<path d="M3070 6100 c-72 -13 -106 -48 -159 -160 -25 -52 -31 -78 -31 -130 0
-78 17 -110 59 -110 44 0 61 21 82 100 24 89 41 118 74 126 58 14 131 -36 145
-101 8 -36 31 -284 44 -490 13 -189 25 -305 40 -380 9 -44 16 -86 16 -92 0
-10 -197 -13 -950 -13 l-949 0 -6 -32 c-3 -18 -4 -807 -3 -1753 l3 -1720 1768
-3 1767 -2 2 1047 c1 577 3 1071 3 1098 1 28 -2 57 -6 65 -7 12 -8 12 -9 -4 0
-37 -41 -85 -98 -116 -69 -38 -203 -74 -240 -65 -34 8 -15 20 48 29 74 12 186
57 206 84 7 9 16 12 24 7 9 -6 11 -4 6 4 -5 7 -1 20 8 30 8 9 17 33 20 53 2
21 7 46 11 58 5 15 3 18 -8 14 -10 -3 -19 8 -30 34 -19 46 -111 122 -185 152
-36 14 -43 20 -30 25 25 10 155 -72 241 -151 30 -28 37 -31 38 -17 1 10 0 113
-1 230 l-2 211 36 17 c19 9 39 14 43 12 5 -3 26 -32 48 -64 72 -108 147 -172
310 -263 33 -19 83 -53 110 -76 28 -23 75 -56 106 -73 48 -27 65 -31 130 -31
97 0 143 21 147 68 3 25 -3 39 -27 63 -28 27 -35 30 -74 24 -41 -6 -45 -5 -80
34 -20 22 -45 57 -56 78 -24 46 -105 139 -134 154 -18 9 -16 5 8 -22 16 -19
34 -39 40 -44 44 -44 40 -50 -7 -10 -65 55 -118 117 -118 138 0 8 -7 20 -15
27 -25 21 -46 113 -43 186 l3 68 65 12 c120 23 265 65 306 89 70 41 114 117
114 196 0 38 -3 43 -51 79 -18 13 -28 32 -32 61 -6 45 -48 99 -78 99 -14 0
-17 15 -22 93 -6 112 -11 127 -46 127 -17 0 -22 -3 -13 -9 9 -5 -2 -21 -41
-54 -30 -25 -57 -44 -59 -41 -3 2 -10 -2 -17 -9 -22 -28 -55 -8 -79 48 -13 29
-32 61 -43 71 -18 16 -20 16 -40 -10 -11 -14 -27 -26 -34 -26 -9 0 -12 -6 -8
-17 3 -10 3 -15 -2 -11 -11 11 -34 -23 -35 -50 0 -13 -5 -32 -10 -43 -13 -23
-13 -23 40 -4 23 8 63 15 89 15 l46 -1 -55 -19 c-30 -11 -61 -20 -70 -20 -8 0
-37 -12 -63 -26 -27 -14 -58 -24 -70 -22 -19 3 -15 7 23 30 61 38 48 35 -34
-6 -48 -24 -62 -36 -49 -39 13 -4 12 -5 -7 -7 -40 -3 -79 -8 -97 -14 -10 -3
-58 -10 -108 -16 -80 -8 -155 -29 -333 -91 -30 -11 -57 -17 -61 -15 -4 3 -40
0 -81 -6 -41 -5 -138 -10 -215 -9 -104 1 -154 -3 -195 -15 -36 -11 -86 -16
-147 -14 -74 1 -100 -3 -137 -19 -25 -12 -58 -21 -73 -21 l-28 1 27 15 c66 36
300 85 477 100 335 28 321 31 -160 33 l-467 1 -10 78 -11 77 5 -70 c3 -38 8
-81 11 -95 6 -22 4 -23 -10 -12 -18 15 -38 125 -35 192 1 25 -4 97 -11 160 -6
63 -16 207 -21 320 -6 113 -13 212 -17 220 -3 8 -5 23 -4 34 2 10 -4 34 -13
52 -9 19 -24 50 -33 71 -26 53 -93 117 -149 143 -40 19 -66 22 -147 22 -101 0
-110 5 -55 34 24 13 49 15 102 11 96 -7 137 -21 186 -62 47 -39 63 -46 34 -14
-54 60 -192 105 -274 89z m130 -2150 c0 -5 -5 -10 -11 -10 -5 0 -7 5 -4 10 3
6 8 10 11 10 2 0 4 -4 4 -10z m1223 -60 c53 -14 66 -36 15 -26 -52 10 -294 19
-322 12 -29 -7 -35 -26 -8 -26 19 -1 -75 -40 -96 -40 -22 0 -7 25 16 28 25 4
30 22 7 22 -20 0 -19 29 0 36 28 11 209 19 275 13 36 -4 86 -12 113 -19z
m-1277 -32 c-19 -26 -22 -7 -4 25 7 13 13 17 15 10 3 -7 -3 -23 -11 -35z
m-166 -8 c0 -11 -63 -30 -100 -30 -14 0 -43 -5 -65 -12 -30 -9 -35 -13 -20
-16 11 -2 23 -9 27 -15 4 -7 29 -6 80 3 97 17 138 20 138 9 0 -5 -4 -9 -10 -9
-18 0 -140 -61 -140 -71 0 -5 11 -9 25 -9 16 0 25 -6 25 -15 0 -13 4 -14 20
-5 13 7 26 7 37 1 10 -5 26 -12 35 -15 18 -5 16 -27 -5 -54 -6 -8 -12 -21 -12
-30 -3 -27 -16 -105 -21 -124 -4 -14 -9 -15 -30 -6 -14 7 -23 17 -20 25 3 7 1
13 -4 13 -6 0 -10 -7 -10 -15 0 -9 -7 -18 -15 -21 -22 -9 -18 -24 6 -24 15 0
19 -5 15 -15 -7 -19 45 -47 71 -38 13 4 15 3 8 -5 -26 -29 -108 -9 -155 36
-25 24 -25 24 -2 19 12 -3 20 -1 16 4 -3 5 -18 9 -33 9 -34 0 -51 16 -52 49
-1 21 -3 19 -11 -12 -12 -44 -4 -87 17 -87 8 0 15 -4 15 -10 0 -5 -5 -10 -11
-10 -5 0 -7 -5 -3 -12 6 -9 9 -9 12 1 3 9 12 5 28 -14 12 -15 27 -24 32 -21 6
3 23 -1 38 -9 16 -8 38 -15 49 -15 11 0 27 -5 35 -10 11 -7 7 -10 -20 -11 -64
-3 -68 -4 -76 -11 -4 -5 0 -8 9 -8 10 0 26 -6 37 -12 17 -11 22 -10 29 1 6 8
11 9 15 3 4 -6 -7 -27 -24 -46 -39 -44 -50 -99 -25 -126 29 -32 38 -24 31 25
-6 37 -4 45 9 45 8 0 20 -11 25 -25 6 -16 28 -33 62 -49 66 -30 176 -61 185
-53 8 9 10 8 -77 46 -41 17 -86 37 -100 44 -33 16 -39 60 -12 83 11 9 18 23
15 30 -8 21 34 17 55 -4 18 -18 19 -18 42 0 20 16 20 18 4 18 -11 0 -25 4 -32
8 -17 11 -4 42 17 42 14 -1 14 -2 -2 -14 -15 -12 -5 -13 70 -10 78 3 140 16
223 46 41 15 77 52 90 94 25 77 29 82 29 37 1 -33 4 -41 16 -37 20 8 19 -16
-3 -42 -21 -24 -83 -65 -127 -82 -99 -38 -96 -34 -36 -43 58 -8 105 5 97 27
-11 27 95 1 137 -35 23 -19 57 -96 57 -130 0 -30 -27 -75 -58 -97 -19 -13
-142 -32 -332 -50 -66 -7 -174 9 -198 29 -7 5 -15 7 -18 4 -12 -12 48 -39 101
-44 65 -7 69 -25 7 -34 -44 -6 -66 -19 -44 -26 8 -3 5 -11 -10 -24 l-23 -18
38 -1 c40 0 49 -22 11 -28 -10 -1 -30 -5 -44 -8 -22 -5 -23 -7 -7 -15 20 -12
14 -29 -11 -29 -30 0 -92 -21 -92 -30 0 -6 12 -10 26 -10 31 0 28 -23 -4 -28
-13 -2 -19 -8 -16 -14 10 -16 -17 -28 -63 -28 -23 0 -45 -4 -48 -10 -3 -5 1
-10 10 -10 34 0 7 -25 -36 -33 -61 -12 -66 -21 -35 -57 20 -25 26 -42 26 -81
0 -44 -5 -55 -38 -90 -24 -26 -57 -47 -92 -60 -174 -62 -171 -62 -300 -63 -70
0 -136 4 -150 10 -21 10 -14 11 45 11 150 -2 247 17 359 68 88 41 107 54 125
85 12 21 21 45 21 54 0 28 -39 96 -55 96 -20 0 -19 -24 1 -44 42 -42 -49 -146
-128 -146 -30 0 -13 14 35 30 37 12 67 50 67 85 0 46 -81 81 -129 56 -11 -6
-32 -6 -57 -1 -38 9 -194 -7 -302 -31 -23 -5 -53 -9 -67 -9 -31 0 -33 -22 -2
-43 12 -8 20 -17 17 -20 -9 -9 -88 9 -114 27 -65 42 22 74 226 83 82 3 148 9
148 13 0 12 -33 23 -59 21 -13 -2 -27 3 -32 10 -6 10 -16 10 -51 -1 -24 -7
-52 -14 -63 -15 -45 -3 -172 -28 -192 -38 -13 -6 -26 -7 -30 -3 -16 16 40 45
109 57 69 11 104 31 92 50 -8 14 -79 11 -126 -5 -24 -8 -62 -19 -86 -26 -25
-6 -48 -20 -58 -35 -17 -25 -44 -34 -44 -14 0 39 141 119 209 119 75 0 95 29
23 31 -30 2 -32 3 -9 6 22 4 27 9 27 33 0 20 -6 31 -20 35 -11 3 -23 17 -26
29 -3 13 -23 34 -43 47 -24 15 -38 31 -38 44 0 11 -3 32 -7 48 -7 22 -5 27 10
28 17 0 17 2 -3 16 -24 16 -31 57 -13 68 7 4 7 12 0 25 -14 27 -13 30 16 30
36 0 26 22 -16 36 -20 7 -28 14 -21 18 16 10 4 26 -20 26 -10 0 -19 5 -19 10
0 6 11 10 24 10 34 0 42 17 20 41 -17 19 -17 20 4 26 26 6 28 19 6 31 -20 11
-10 32 15 32 15 0 18 8 17 48 -1 29 -7 52 -16 59 -13 10 -11 12 10 17 14 3 36
7 50 8 20 2 26 9 28 34 2 17 16 45 32 62 16 18 24 34 19 37 -16 11 -10 25 12
25 11 0 41 5 66 12 44 11 45 12 22 21 -25 10 -23 11 24 21 15 4 27 13 27 20 0
17 31 26 93 26 27 0 46 4 43 9 -3 5 1 11 9 15 8 3 15 12 15 21 0 16 35 21 126
16 32 -1 66 4 90 15 61 27 234 45 234 24z m1430 -49 c35 -16 35 -16 -83 -19
-93 -2 -119 -6 -124 -17 -3 -8 -11 -15 -18 -15 -7 0 -18 -7 -25 -15 -15 -18
-45 -19 -89 -4 -31 11 -42 29 -17 29 7 0 34 9 59 20 63 28 173 49 222 43 22
-3 56 -13 75 -22z m40 19 c0 -5 -7 -7 -15 -4 -8 4 -15 8 -15 10 0 2 7 4 15 4
8 0 15 -4 15 -10z m254 -15 c33 -16 103 -81 95 -89 -2 -2 -14 -7 -26 -10 -18
-6 -22 -4 -17 8 3 9 1 16 -4 16 -14 0 -112 61 -112 70 0 23 22 25 64 5z m-940
-31 c-4 -14 -7 -44 -8 -66 -1 -44 11 -56 79 -73 30 -8 46 -20 69 -54 16 -24
43 -49 61 -57 42 -17 146 -30 125 -15 -8 6 -10 11 -4 11 15 0 46 -35 37 -43
-3 -4 6 -7 21 -7 15 0 25 4 22 8 -2 4 12 6 32 5 133 -11 372 8 372 29 0 4 9 8
19 8 10 0 22 7 25 16 4 10 14 14 26 11 13 -3 20 0 20 8 0 8 8 20 18 27 13 9
18 26 18 60 -1 54 5 60 22 23 17 -38 15 -61 -10 -100 -51 -77 -165 -113 -368
-115 -173 -2 -256 5 -330 30 -30 10 -68 21 -83 25 -16 3 -40 17 -53 30 -14 14
-26 25 -28 25 -2 0 -2 -19 -2 -42 1 -29 -5 -49 -17 -61 -10 -10 -16 -25 -13
-33 3 -9 2 -12 -5 -9 -6 4 -18 0 -27 -8 -16 -14 -17 -13 -17 9 0 13 5 24 12
24 11 0 39 39 31 44 -73 48 -88 48 -88 -1 0 -80 -43 -164 -90 -176 -17 -4 -18
-2 -10 13 6 11 15 22 20 25 6 4 21 29 34 56 23 48 27 99 10 152 -7 23 -71 81
-132 122 -57 38 -72 69 -18 37 20 -12 43 -22 51 -22 8 0 30 -13 48 -30 19 -16
38 -30 42 -30 4 0 5 20 3 45 -2 26 1 45 7 45 5 1 22 19 37 40 32 46 52 52 42
14z m-329 -14 c8 -13 -25 -13 -45 0 -12 8 -9 10 12 10 15 0 30 -4 33 -10z
m-365 -10 c0 -5 -16 -10 -36 -10 -21 0 -33 4 -29 10 3 6 19 10 36 10 16 0 29
-4 29 -10z m335 -11 c22 -6 54 -22 72 -35 17 -13 36 -24 42 -24 14 0 31 -33
31 -59 0 -31 -23 -25 -40 11 -21 45 -96 88 -165 95 -31 3 -58 10 -61 14 -7 13
73 11 121 -2z m917 -9 c24 -5 55 -12 71 -15 26 -5 39 -35 15 -35 -9 0 -8 -4 2
-11 12 -9 11 -9 -5 -4 -96 36 -136 46 -172 43 -49 -3 -62 14 -18 23 46 10 61
10 107 -1z m108 0 c0 -5 -2 -10 -4 -10 -3 0 -8 5 -11 10 -3 6 -1 10 4 10 6 0
11 -4 11 -10z m177 -36 c-9 -9 -28 6 -21 18 4 6 10 6 17 -1 6 -6 8 -13 4 -17z
m-1200 -59 c46 -30 93 -84 93 -106 0 -4 -17 9 -37 28 -45 41 -103 73 -134 73
-31 0 -99 22 -94 30 3 4 30 8 62 9 50 1 64 -3 110 -34z m1460 -17 c-3 -8 -6
-5 -6 6 -1 11 2 17 5 13 3 -3 4 -12 1 -19z m-107 -35 c-11 -17 -11 -17 -6 0 3
10 6 24 7 30 0 9 2 9 5 0 3 -7 0 -20 -6 -30z m-1160 17 c0 -5 -4 -10 -10 -10
-5 0 -10 5 -10 10 0 6 5 10 10 10 6 0 10 -4 10 -10z m1250 -55 c-12 -19 -24
-35 -26 -35 -3 0 -3 3 -1 8 2 4 12 25 22 47 10 22 20 34 22 28 3 -7 -5 -29
-17 -48z m-1528 27 c7 -9 26 -23 41 -30 30 -13 57 -64 50 -93 -5 -19 -75 -56
-125 -66 -22 -4 -29 -3 -24 5 4 7 15 12 25 12 9 0 30 14 46 30 16 17 25 30 20
30 -5 0 -4 5 3 12 7 7 12 20 12 29 0 18 -19 26 -115 49 -74 18 -77 19 -70 30
3 5 33 10 65 10 45 0 62 -4 72 -18z m817 8 c41 -12 214 -15 256 -5 20 5 27 4
20 -3 -5 -5 -44 -13 -85 -17 -41 -3 -94 -10 -118 -16 -43 -9 -70 -2 -99 27
-25 25 -20 27 26 14z m21 -70 c0 -5 -5 -10 -11 -10 -5 0 -7 5 -4 10 3 6 8 10
11 10 2 0 4 -4 4 -10z m-896 -25 c11 -12 13 -22 6 -39 -5 -13 -6 -27 -2 -31 6
-6 -16 -25 -31 -25 -4 0 -1 15 7 34 13 30 13 36 0 47 -8 6 -14 15 -14 20 0 14
17 11 34 -6z m236 -7 c0 -18 -40 -81 -47 -75 -3 3 4 18 16 33 11 15 21 33 21
40 0 8 2 14 5 14 3 0 5 -6 5 -12z m419 -24 c10 -9 -35 -3 -49 6 -11 8 -7 9 15
4 17 -4 32 -8 34 -10z m712 -23 c-12 -8 -51 -4 -51 5 0 2 15 4 33 4 22 0 28
-3 18 -9z m-188 -28 c-7 -2 -21 -2 -30 0 -10 3 -4 5 12 5 17 0 24 -2 18 -5z
m-1214 -22 c11 -7 5 -11 -23 -16 -39 -8 -52 -3 -41 14 8 13 45 14 64 2z m-154
-21 c3 -5 -3 -10 -14 -10 -11 0 -23 5 -26 10 -3 6 3 10 14 10 11 0 23 -4 26
-10z m1465 -9 c0 -5 -12 -14 -27 -20 -58 -23 -128 -30 -228 -20 -55 5 -128 12
-163 16 -34 3 -65 10 -69 16 -4 7 20 7 73 2 43 -4 88 -7 99 -6 11 1 63 1 115
1 53 -1 107 3 120 9 32 12 80 14 80 2z m-1290 -26 c0 -8 -7 -15 -15 -15 -8 0
-15 4 -15 9 0 5 -12 12 -27 14 -20 3 -15 4 15 6 31 1 42 -3 42 -14z m1658 3
c-8 -22 -145 -68 -297 -99 -127 -26 -170 -30 -326 -32 -145 -1 -192 2 -244 16
-36 10 -71 23 -78 29 -22 18 -1 27 42 18 134 -30 160 -33 297 -27 163 6 411
45 514 82 80 27 97 30 92 13z m-1753 -9 c16 -8 15 -8 -8 -4 -17 4 -26 2 -23
-4 4 -5 2 -12 -4 -16 -5 -3 -10 -2 -10 2 0 5 -12 14 -27 20 -27 11 -27 11 12
11 22 0 49 -4 60 -9z m-64 -54 c-1 -15 -24 -12 -29 3 -3 9 2 13 12 10 10 -1
17 -7 17 -13z m695 -24 c22 -22 146 -76 234 -102 70 -20 86 -28 61 -28 -94 -2
-297 78 -315 125 -6 16 5 19 20 5z m-737 -24 c-9 -7 -21 -23 -28 -36 -12 -22
-14 -22 -29 -6 -11 11 -13 19 -6 22 6 2 20 10 30 18 10 8 26 14 34 14 13 0 13
-1 -1 -12z m-1002 -681 c2 -43 40 -96 67 -96 12 0 61 -14 111 -30 49 -17 106
-30 127 -30 20 0 49 -5 65 -11 15 -7 60 -15 98 -19 l70 -7 -95 -3 c-52 -2
-113 -4 -135 -4 -22 0 -85 14 -140 32 -55 18 -116 37 -135 43 -60 19 -80 37
-80 70 0 32 15 69 34 81 6 4 11 8 11 8 0 0 1 -16 2 -34z m663 -25 c22 -42 -10
-67 -120 -97 -38 -10 -96 -16 -140 -15 -74 1 -160 25 -160 43 0 6 7 7 18 2 9
-5 82 -8 162 -6 166 4 207 17 203 65 -2 32 21 37 37 8z m-772 -21 c-1 -38 34
-77 81 -90 20 -5 50 -24 66 -42 17 -17 23 -29 15 -26 -8 3 -39 13 -69 23 -53
17 -141 85 -141 109 0 15 29 56 40 56 5 0 8 -14 8 -30z m648 19 c11 -19 -13
-32 -68 -35 -50 -3 -51 -3 -20 8 17 6 32 15 32 21 0 5 -14 7 -32 3 -18 -4 -55
-9 -83 -12 -27 -4 -55 -10 -60 -14 -6 -5 -26 -5 -45 -1 l-35 8 26 11 c15 6 35
9 45 6 11 -2 42 0 69 5 72 13 163 13 171 0z m-421 -192 c10 -8 14 -17 9 -20
-5 -3 -21 3 -34 14 -29 22 -6 28 25 6z"/>
<path d="M2720 3726 c-20 -13 -42 -32 -50 -42 -11 -13 -5 -11 20 6 19 14 50
33 70 42 25 11 29 16 15 17 -11 0 -36 -11 -55 -23z"/>
<path d="M2615 3730 c-3 -5 1 -10 9 -10 8 0 18 5 21 10 3 6 -1 10 -9 10 -8 0
-18 -4 -21 -10z"/>
<path d="M2545 3690 c-3 -5 -15 -10 -25 -10 -10 0 -26 -10 -34 -22 -30 -42 -4
-34 64 21 14 11 20 21 13 21 -6 0 -15 -4 -18 -10z"/>
<path d="M2635 3660 c-3 -5 -1 -10 4 -10 6 0 11 5 11 10 0 6 -2 10 -4 10 -3 0
-8 -4 -11 -10z"/>
<path d="M2611 3604 c0 -11 3 -14 6 -6 3 7 2 16 -1 19 -3 4 -6 -2 -5 -13z"/>
<path d="M2500 3565 c-7 -22 -15 -44 -19 -50 -9 -15 -10 -57 -1 -92 8 -33 -3
-56 -14 -28 -13 34 -18 115 -8 127 7 9 6 18 -3 31 -13 18 -14 18 -25 -3 -6
-12 -14 -46 -17 -75 -4 -42 -1 -63 16 -98 25 -52 75 -106 117 -127 16 -8 33
-16 38 -19 5 -2 6 1 2 8 -12 19 22 24 58 7 19 -9 47 -16 63 -16 15 0 37 -7 47
-15 21 -16 96 -21 96 -6 0 10 -38 24 -57 22 -7 -1 -13 3 -13 9 0 5 5 10 10 10
6 0 10 5 10 11 0 8 -5 8 -15 -1 -12 -10 -18 -10 -30 0 -8 7 -15 9 -15 5 0 -4
8 -14 18 -21 16 -12 16 -13 0 -14 -9 0 -23 6 -30 13 -7 6 -19 12 -25 13 -29 2
-33 5 -33 19 0 8 -9 15 -20 15 -11 0 -20 4 -20 10 0 5 -17 18 -39 29 -61 32
-104 146 -81 217 6 19 10 40 7 47 -2 6 -10 -6 -17 -28z m0 -205 c0 -5 -2 -10
-4 -10 -3 0 -8 5 -11 10 -3 6 -1 10 4 10 6 0 11 -4 11 -10z"/>
<path d="M2792 3578 c-14 -14 -16 -48 -3 -48 8 0 23 51 17 57 -1 2 -8 -3 -14
-9z"/>
<path d="M2827 3583 c-19 -18 3 -123 25 -123 12 0 10 18 -7 50 -9 18 -13 40
-9 55 6 25 3 31 -9 18z"/>
<path d="M2942 3574 c-12 -8 -22 -21 -22 -27 0 -9 2 -9 8 0 4 7 23 19 42 27
25 11 29 15 15 16 -11 0 -31 -7 -43 -16z"/>
<path d="M2644 3533 c-4 -15 -13 -38 -20 -52 -8 -14 -14 -42 -14 -61 0 -20 -6
-42 -12 -49 -11 -11 -10 -12 1 -6 9 5 12 3 9 -6 -6 -19 30 -45 72 -53 l35 -6
-29 14 c-19 9 -25 16 -17 21 9 5 8 12 -5 26 -14 15 -15 29 -10 81 4 35 10 75
13 91 7 36 -14 36 -23 0z"/>
<path d="M2793 3307 c5 -15 37 -22 37 -9 0 5 -9 12 -21 15 -13 3 -19 1 -16 -6z"/>
<path d="M3528 3238 c-29 -10 -35 -22 -18 -33 13 -8 13 -55 1 -55 -6 0 -22
-11 -37 -25 -22 -21 -37 -25 -84 -25 -42 0 -59 -4 -64 -15 -7 -18 8 -19 106
-4 109 17 138 31 138 71 l1 33 15 -28 c20 -37 15 -66 -16 -88 -20 -15 -51 -20
-145 -25 -137 -7 -157 -10 -135 -24 12 -8 10 -10 -7 -10 -13 0 -23 -5 -23 -11
0 -8 17 -10 50 -7 29 3 50 1 50 -5 0 -5 14 -6 33 -2 17 3 64 8 103 9 56 3 78
9 111 30 76 50 81 103 15 166 -59 56 -64 58 -94 48z"/>
<path d="M3261 3210 c-74 -22 -94 -36 -36 -25 22 4 62 10 88 14 26 3 49 11 50
16 3 17 -35 15 -102 -5z"/>
<path d="M3318 3172 c-42 -15 -45 -19 -34 -34 8 -11 26 -18 47 -18 50 1 134
32 134 50 0 22 -89 23 -147 2z"/>
<path d="M3120 3140 c0 -5 5 -10 11 -10 5 0 7 5 4 10 -3 6 -8 10 -11 10 -2 0
-4 -4 -4 -10z"/>
<path d="M3170 3110 c8 -5 31 -9 50 -9 l35 1 -30 8 c-16 4 -39 8 -50 9 -16 1
-17 -1 -5 -9z"/>
<path d="M3016 3036 c6 -16 34 -30 42 -21 8 7 -19 35 -34 35 -7 0 -11 -6 -8
-14z"/>
<path d="M2325 2730 c-4 -6 5 -10 19 -10 14 0 26 5 26 10 0 6 -9 10 -19 10
-11 0 -23 -4 -26 -10z"/>
<path d="M3717 3683 c-11 -10 -8 -41 4 -49 16 -10 29 9 23 34 -6 22 -15 27
-27 15z"/>
<path d="M3710 3588 c0 -23 25 -50 43 -47 14 3 15 8 4 29 -14 27 -47 40 -47
18z"/>
<path d="M3790 3520 c0 -5 7 -7 15 -4 8 4 15 8 15 10 0 2 -7 4 -15 4 -8 0 -15
-4 -15 -10z"/>
<path d="M3370 5960 c6 -11 13 -20 16 -20 2 0 0 9 -6 20 -6 11 -13 20 -16 20
-2 0 0 -9 6 -20z"/>
<path d="M3390 5929 c0 -4 7 -22 15 -40 8 -19 14 -27 14 -19 0 14 -28 72 -29
59z"/>
<path d="M3421 5845 c0 -5 8 -39 19 -75 10 -36 19 -56 19 -45 0 21 -36 137
-38 120z"/>
<path d="M3463 5620 c0 -25 2 -35 4 -22 2 12 2 32 0 45 -2 12 -4 2 -4 -23z"/>
<path d="M3471 5415 c0 -60 4 -128 8 -150 4 -23 6 19 3 100 -5 172 -10 198
-11 50z"/>
<path d="M4943 4943 c15 -2 39 -2 55 0 15 2 2 4 -28 4 -30 0 -43 -2 -27 -4z"/>
<path d="M5058 4943 c6 -2 18 -2 25 0 6 3 1 5 -13 5 -14 0 -19 -2 -12 -5z"/>
<path d="M4878 4933 c6 -2 18 -2 25 0 6 3 1 5 -13 5 -14 0 -19 -2 -12 -5z"/>
<path d="M4838 4923 c7 -3 16 -2 19 1 4 3 -2 6 -13 5 -11 0 -14 -3 -6 -6z"/>
<path d="M4758 4903 c7 -3 16 -2 19 1 4 3 -2 6 -13 5 -11 0 -14 -3 -6 -6z"/>
<path d="M4645 4880 c-18 -8 -18 -9 5 -9 14 0 34 4 45 9 18 8 18 9 -5 9 -14 0
-34 -4 -45 -9z"/>
<path d="M4588 4863 c6 -2 18 -2 25 0 6 3 1 5 -13 5 -14 0 -19 -2 -12 -5z"/>
<path d="M4548 4853 c7 -3 16 -2 19 1 4 3 -2 6 -13 5 -11 0 -14 -3 -6 -6z"/>
</g>
</svg>
